<svg xmlns="http://www.w3.org/2000/svg" style="display: none;">
  <symbol id="refresh" viewBox="0 0 24 24" fill="none" stroke="currentColor" stroke-width="2" stroke-linecap="round" stroke-linejoin="round">
    <path d="M21 2v6h-6"/><path d="M3 12a9 9 0 0 1 15-6.7L21 8"/><path d="M3 22v-6h6"/><path d="M21 12a9 9 0 0 1-15 6.7L3 16"/>
  </symbol>
  <symbol id="plus" viewBox="0 0 24 24" fill="none" stroke="currentColor" stroke-width="2" stroke-linecap="round" stroke-linejoin="round">
    <line x1="12" y1="5" x2="12" y2="19"/><line x1="5" y1="12" x2="19" y2="12"/>
  </symbol>
  <symbol id="trash" viewBox="0 0 24 24" fill="none" stroke="currentColor" stroke-width="2" stroke-linecap="round" stroke-linejoin="round">
    <polyline points="3 6 5 6 21 6"/><path d="M19 6v14a2 2 0 0 1-2 2H7a2 2 0 0 1-2-2V6m3 0V4a2 2 0 0 1 2-2h4a2 2 0 0 1 2 2v2"/>
  </symbol>
</svg>
